<?xml version="1.0" encoding="utf-8"?>
<!-- Generator: Adobe Illustrator 26.3.1, SVG Export Plug-In . SVG Version: 6.00 Build 0)  -->
<svg version="1.1" id="Capa_1" xmlns="http://www.w3.org/2000/svg" xmlns:xlink="http://www.w3.org/1999/xlink" x="0px" y="0px"
	 viewBox="0 0 100 100.9" style="enable-background:new 0 0 100 100.9;" xml:space="preserve">
<path d="M78.2,90.9c0.8,1.4,1.6,2.7,2.3,4c1.1,2,0.5,4.1-1.3,5.1c-1.8,1-3.7,0.4-4.9-1.5c-0.7-1.1-1.3-2.2-2-3.4
	c-14.5,7.8-29,7.8-43.7,0c-0.7,1.2-1.3,2.3-2,3.3c-1.2,1.9-3.1,2.5-4.9,1.6c-1.9-1-2.4-3-1.4-5.1c0.7-1.4,2.1-2.8,1.9-4.1
	c-0.2-1.2-2-2.2-3.1-3.3C7.5,74.4,3.9,59.4,9.9,42.9c6-16.6,18.4-26.2,36-28.2c26.5-3,49.3,18.7,47.7,45.3
	c-0.7,11.4-5.3,21.1-13.5,29C79.5,89.7,78.8,90.2,78.2,90.9z M50.4,93.7c19.8,0.1,36.1-16.2,36.1-36c0-19.8-16.1-36-35.9-36.1
	c-19.8-0.1-36.1,16.1-36.2,36.1C14.4,77.5,30.5,93.6,50.4,93.7z"/>
<path d="M3.2,27.9c-5.1-6.5-4-16.9,2.2-22.8C11.5-0.8,21.9-1.8,28,3.3c-1.5,1.4-3,2.8-4.6,4.1c-0.4,0.3-1.2,0.6-1.6,0.4
	c-8.6-3.3-17.2,5.4-14,13.8c0.2,0.5-0.1,1.5-0.5,2C6,25.1,4.7,26.4,3.2,27.9z"/>
<path d="M72.1,3.1c7.2-5,17.3-3.8,23.1,2.7c5.7,6.2,6.5,16.2,1.5,22.2c-1.4-1.5-2.9-3-4.1-4.5c-0.4-0.4-0.5-1.3-0.4-1.8
	c1.4-4.3,0.6-8.1-2.6-11.3c-3.1-3.1-6.9-3.9-11.1-2.6c-0.6,0.2-1.5,0-2-0.4C74.9,6,73.6,4.6,72.1,3.1z"/>
<path d="M50.4,50.4c5.6,0,10.9,0,16.3,0c0.7,0,1.4,0,2.1,0.1c1.9,0.3,3.2,1.8,3.2,3.6c0,1.9-1.5,3.5-3.5,3.5
	c-7.3,0.1-14.5,0.1-21.8,0c-2.1,0-3.5-1.5-3.5-3.7c0-8.3,0-16.5,0-24.8c0-2.4,1.4-3.8,3.6-3.8c2.1,0,3.6,1.4,3.6,3.8
	c0,6.6,0,13.1,0,19.7C50.4,49.2,50.4,49.6,50.4,50.4z"/>
</svg>
